<?xml version="1.0" encoding="UTF-8" standalone="no"?>
<!-- Created with Inkscape (http://www.inkscape.org/) -->

<svg
   xmlns:dc="http://purl.org/dc/elements/1.1/"
   xmlns:cc="http://creativecommons.org/ns#"
   xmlns:rdf="http://www.w3.org/1999/02/22-rdf-syntax-ns#"
   xmlns:svg="http://www.w3.org/2000/svg"
   xmlns="http://www.w3.org/2000/svg"
   xmlns:xlink="http://www.w3.org/1999/xlink"
   xmlns:sodipodi="http://sodipodi.sourceforge.net/DTD/sodipodi-0.dtd"
   xmlns:inkscape="http://www.inkscape.org/namespaces/inkscape"
   width="744.09448819"
   height="1052.3622047"
   id="svg2"
   version="1.1"
   inkscape:version="0.48.2 r9819"
   sodipodi:docname="charredone.svg">
  <defs
     id="defs4">
    <linearGradient
       id="linearGradient3009">
      <stop
         id="stop3017"
         offset="0"
         style="stop-color:#e9c6af;stop-opacity:1;" />
      <stop
         style="stop-color:#e9c6af;stop-opacity:1;"
         offset="0.5"
         id="stop3021" />
      <stop
         style="stop-color:#dd986a;stop-opacity:1;"
         offset="1"
         id="stop3019" />
    </linearGradient>
    <linearGradient
       inkscape:collect="always"
       xlink:href="#linearGradient3009"
       id="linearGradient3043"
       gradientUnits="userSpaceOnUse"
       x1="332.85715"
       y1="256.64789"
       x2="234.28571"
       y2="310.93362"
       gradientTransform="translate(-1.0101525,53.538085)" />
  </defs>
  <sodipodi:namedview
     id="base"
     pagecolor="#ffffff"
     bordercolor="#666666"
     borderopacity="1.0"
     inkscape:pageopacity="0.0"
     inkscape:pageshadow="2"
     inkscape:zoom="0.24748737"
     inkscape:cx="529.8604"
     inkscape:cy="478.17423"
     inkscape:document-units="px"
     inkscape:current-layer="layer1"
     showgrid="false"
     inkscape:window-width="627"
     inkscape:window-height="701"
     inkscape:window-x="723"
     inkscape:window-y="64"
     inkscape:window-maximized="0" />
  <metadata
     id="metadata7">
    <rdf:RDF>
      <cc:Work
         rdf:about="">
        <dc:format>image/svg+xml</dc:format>
        <dc:type
           rdf:resource="http://purl.org/dc/dcmitype/StillImage" />
        <dc:title></dc:title>
      </cc:Work>
    </rdf:RDF>
  </metadata>
  <g
     inkscape:groupmode="layer"
     id="layer2"
     inkscape:label="Layer" />
  <g
     inkscape:label="Layer 1"
     inkscape:groupmode="layer"
     id="layer1">
    <g
       id="g4090"
       transform="matrix(-1,0,0,1,522.85714,-60)">
      <path
         sodipodi:nodetypes="sssss"
         inkscape:connector-curvature="0"
         id="path4055-9"
         d="m 247.23281,787.15415 c -7.25106,77.38517 1.82159,92.66483 -24.28572,88.57141 -34.90462,-5.47277 -5.16163,-57.37792 -8.57143,-105.71427 -3.62391,-51.37141 -48.48826,-69.12728 8.57143,-71.42857 28.30235,-1.14147 31.27656,13.9634 24.28572,88.57143 z"
         style="fill:#502d16;fill-opacity:1;stroke:none" />
      <path
         sodipodi:nodetypes="ssssss"
         inkscape:connector-curvature="0"
         id="path4000-4-1"
         d="m 318.84587,890.63419 c 46.48429,17.20242 -15.98283,29.76294 -72.94457,26.46735 -37.29609,-2.15782 -76.60093,6.45506 -57.86122,-34.05945 3.11208,-6.72818 14.46464,-27.92381 20.23556,-17.29582 12.88537,23.73029 23.56986,-6.47796 39.57468,-5.02674 32.00964,2.90245 27.68011,13.88494 70.99555,29.91466 z"
         style="fill:#ff9955;fill-opacity:1;stroke:none" />
      <path
         sodipodi:nodetypes="ssssss"
         inkscape:connector-curvature="0"
         id="path4000-44"
         d="m 317.70147,884.90302 c 46.48429,17.20241 -15.98284,29.76293 -72.94458,26.46734 -37.29608,-2.15782 -76.60092,6.45507 -57.86121,-34.05945 3.11207,-6.72818 14.46464,-27.92381 20.23555,-17.29582 12.88537,23.73029 23.56987,-6.47796 39.57468,-5.02673 32.00964,2.90244 27.68011,13.88494 70.99556,29.91466 z"
         style="fill:#a05a2c;fill-opacity:1;stroke:none" />
      <path
         transform="matrix(1.1756199,0,0,1.2951258,-238.44207,-94.393207)"
         d="m 430.32497,743.76056 c 0,2.51051 -1.80904,4.54569 -4.04061,4.54569 -2.23156,0 -4.04061,-2.03518 -4.04061,-4.54569 0,-2.51051 1.80905,-4.54569 4.04061,-4.54569 2.23157,0 4.04061,2.03518 4.04061,4.54569 z"
         sodipodi:ry="4.5456862"
         sodipodi:rx="4.0406103"
         sodipodi:cy="743.76056"
         sodipodi:cx="426.28436"
         id="path4021-4"
         style="fill:#28170b;fill-opacity:1;stroke:none"
         sodipodi:type="arc" />
      <path
         transform="matrix(1.1756199,0,0,1.2951258,-238.44207,-94.393207)"
         d="m 453.5585,752.85193 c 0,1.95262 -2.03517,3.53553 -4.54568,3.53553 -2.51052,0 -4.54569,-1.58291 -4.54569,-3.53553 0,-1.95262 2.03517,-3.53554 4.54569,-3.53554 2.51051,0 4.54568,1.58292 4.54568,3.53554 z"
         sodipodi:ry="3.5355339"
         sodipodi:rx="4.5456862"
         sodipodi:cy="752.85193"
         sodipodi:cx="449.01282"
         id="path4023-1"
         style="fill:#28170b;fill-opacity:1;stroke:none"
         sodipodi:type="arc" />
    </g>
    <g
       id="g4097"
       transform="matrix(-1,0,0,1,779.82009,-60)">
      <path
         sodipodi:nodetypes="sssss"
         inkscape:connector-curvature="0"
         id="path4055"
         d="M 414.28572,785.21936 C 407.03466,862.60454 416.10731,877.8842 390,873.79078 355.09538,868.31801 384.83837,816.41286 381.42857,768.0765 377.80466,716.70509 332.94031,698.94922 390,696.64793 c 28.30235,-1.14147 31.27656,13.9634 24.28572,88.57143 z"
         style="fill:#502d16;fill-opacity:1;stroke:none" />
      <path
         sodipodi:nodetypes="ssssss"
         inkscape:connector-curvature="0"
         id="path4000-4"
         d="m 485.89877,888.69941 c 46.48429,17.20242 -15.98283,29.76294 -72.94456,26.46735 -37.29609,-2.15782 -76.60093,6.45506 -57.86122,-34.05945 3.11208,-6.72818 14.46464,-27.92381 20.23556,-17.29582 12.88537,23.73029 23.56986,-6.47796 39.57468,-5.02674 32.00964,2.90245 27.68011,13.88494 70.99554,29.91466 z"
         style="fill:#ff9955;fill-opacity:1;stroke:none" />
      <path
         sodipodi:nodetypes="ssssss"
         inkscape:connector-curvature="0"
         id="path4000"
         d="m 484.75437,882.96824 c 46.48429,17.20241 -15.98284,29.76293 -72.94457,26.46734 -37.29608,-2.15782 -76.60092,6.45507 -57.86121,-34.05945 3.11207,-6.72818 14.46464,-27.92381 20.23555,-17.29582 12.88537,23.73029 23.56987,-6.47796 39.57468,-5.02673 32.00964,2.90244 27.68011,13.88494 70.99555,29.91466 z"
         style="fill:#a05a2c;fill-opacity:1;stroke:none" />
      <path
         transform="matrix(1.1756199,0,0,1.2951258,-71.389172,-96.32799)"
         d="m 430.32497,743.76056 c 0,2.51051 -1.80904,4.54569 -4.04061,4.54569 -2.23156,0 -4.04061,-2.03518 -4.04061,-4.54569 0,-2.51051 1.80905,-4.54569 4.04061,-4.54569 2.23157,0 4.04061,2.03518 4.04061,4.54569 z"
         sodipodi:ry="4.5456862"
         sodipodi:rx="4.0406103"
         sodipodi:cy="743.76056"
         sodipodi:cx="426.28436"
         id="path4021"
         style="fill:#28170b;fill-opacity:1;stroke:none"
         sodipodi:type="arc" />
      <path
         transform="matrix(1.1756199,0,0,1.2951258,-71.389172,-96.32799)"
         d="m 453.5585,752.85193 c 0,1.95262 -2.03517,3.53553 -4.54568,3.53553 -2.51052,0 -4.54569,-1.58291 -4.54569,-3.53553 0,-1.95262 2.03517,-3.53554 4.54569,-3.53554 2.51051,0 4.54568,1.58292 4.54568,3.53554 z"
         sodipodi:ry="3.5355339"
         sodipodi:rx="4.5456862"
         sodipodi:cy="752.85193"
         sodipodi:cx="449.01282"
         id="path4023"
         style="fill:#28170b;fill-opacity:1;stroke:none"
         sodipodi:type="arc" />
    </g>
    <g
       id="g4030"
       transform="matrix(-0.78680838,-0.61719736,-0.61719736,0.78680838,1077.8765,537.53971)">
      <path
         sodipodi:nodetypes="sssss"
         inkscape:connector-curvature="0"
         id="path3952-2"
         d="m 590.14863,620.22191 c 1.97634,19.57366 12.29628,29.35926 26.26397,28.28427 14.46241,-1.11306 14.14213,-8.62269 14.14213,-24.24366 0,-15.62097 0.36305,-32.32488 -14.14213,-32.32488 -14.50519,0 -27.83323,12.74232 -26.26397,28.28427 z"
         style="fill:#deaa87;fill-opacity:1;stroke:none" />
      <path
         sodipodi:nodetypes="sssss"
         inkscape:connector-curvature="0"
         id="path3948-6"
         d="m 582.0674,512.1356 c 0.55148,47.4176 10.85426,85.86297 24.24367,85.86297 13.3894,0 30.9857,-19.72885 19.1929,-65.65992 -12.98493,-50.57423 44.056,-123.76213 -1.01015,-112.12692 -31.49183,8.13057 -42.99107,43.37376 -42.42642,91.92387 z"
         style="fill:#cccccc;fill-opacity:1;stroke:none" />
      <path
         sodipodi:nodetypes="ccccc"
         inkscape:connector-curvature="0"
         id="rect3950-7"
         d="m 631.19381,580.74401 c -16.41907,-10.53877 -26.71454,-2.54696 -39.08653,-0.83886 -7.49292,8.2502 -5.76534,14.95029 0,20.97155 14.13158,6.95973 26.30787,4.05798 38.2549,0 3.56518,-5.88175 6.0191,-12.04374 0.83163,-20.13269 z"
         style="fill:#999999;fill-opacity:1;stroke:none" />
    </g>
    <path
       style="fill:#f2f2f2;fill-opacity:1"
       d="m 438.26774,585.94401 c -0.091,62.50844 -14.06896,78.89598 -67.30882,78.89598 -53.23987,0 -118.46207,-37.12134 -109.62224,-98.89598 8.86504,-61.9508 56.41359,-122.41367 106.97765,-118.89598 70.71124,4.91931 70.04457,76.28897 69.95341,138.89598 z"
       id="path3886"
       inkscape:connector-curvature="0"
       sodipodi:nodetypes="sssss" />
    <g
       id="g4035"
       transform="translate(-2.8571428,37.142857)">
      <path
         sodipodi:nodetypes="sssss"
         inkscape:connector-curvature="0"
         id="path2985"
         d="m 490.10151,283.85023 c 0,59.96234 -74.5148,137.14285 -139.99999,137.14285 -65.48519,0 -97.14286,-77.18051 -97.14286,-137.14285 0,-59.96235 53.08624,-108.57143 118.57143,-108.57143 65.48519,0 118.57142,48.60908 118.57142,108.57143 z"
         style="fill:#e9c6af" />
      <path
         inkscape:connector-curvature="0"
         id="path3045"
         d="m 350.41843,335.90026 c 0,23.66935 -29.42129,42.85715 -65.71429,42.85715 -36.29299,0 -65.71428,-19.1878 -65.71428,-42.85715 0,-23.66934 29.42129,-42.85714 65.71428,-42.85714 29.63393,0 55.60157,12.9352 63.39877,31.58068 l -63.39877,11.27646 z"
         style="fill:url(#linearGradient3043);fill-opacity:1" />
      <path
         transform="translate(10.101525,34.345187)"
         d="m 302.85713,226.6479 c 0,11.0457 -5.11675,20 -11.42857,20 -6.31183,0 -11.42857,-8.9543 -11.42857,-20 0,-11.04569 5.11674,-20 11.42857,-20 6.31182,0 11.42857,8.95431 11.42857,20 z"
         sodipodi:ry="20"
         sodipodi:rx="11.428572"
         sodipodi:cy="226.6479"
         sodipodi:cx="291.42856"
         id="path2989"
         style="fill:#28170b"
         sodipodi:type="arc" />
      <path
         transform="translate(10.101525,34.345187)"
         d="m 385.71428,243.79076 c 0,15.77956 -9.5939,28.57142 -21.42857,28.57142 -11.83468,0 -21.42858,-12.79186 -21.42858,-28.57142 0,-15.77957 9.5939,-28.57143 21.42858,-28.57143 11.83467,0 21.42857,12.79186 21.42857,28.57143 z"
         sodipodi:ry="28.571428"
         sodipodi:rx="21.428572"
         sodipodi:cy="243.79076"
         sodipodi:cx="364.28571"
         id="path2991"
         style="fill:#241f1c"
         sodipodi:type="arc" />
      <path
         transform="matrix(1,0,0,-1,12.121831,499.06956)"
         d="m 377.14286,233.79076 c 0,5.52284 -3.19797,10 -7.14286,10 -3.94489,0 -7.14286,-4.47716 -7.14286,-10 0,-5.52285 3.19797,-10 7.14286,-10 3.94489,0 7.14286,4.47715 7.14286,10 z"
         sodipodi:ry="10"
         sodipodi:rx="7.1428571"
         sodipodi:cy="233.79076"
         sodipodi:cx="370"
         id="path2995"
         style="fill:#ffffff"
         sodipodi:type="arc" />
      <path
         transform="translate(11.530097,32.202329)"
         d="m 299.00516,221.00664 c 0,3.90524 -2.71356,7.07107 -6.06092,7.07107 -3.34735,0 -6.06091,-3.16583 -6.06091,-7.07107 0,-3.90525 2.71356,-7.07107 6.06091,-7.07107 3.34736,0 6.06092,3.16582 6.06092,7.07107 z"
         sodipodi:ry="7.0710678"
         sodipodi:rx="6.0609155"
         sodipodi:cy="221.00664"
         sodipodi:cx="292.94424"
         id="path2999"
         style="fill:#ffffff"
         sodipodi:type="arc" />
      <path
         sodipodi:nodetypes="sssss"
         inkscape:connector-curvature="0"
         id="path3027"
         d="m 405.81581,234.92166 c 0,3.5504 -4.41163,-3.06445 -21.42857,0.35714 -26.64324,5.35714 -31.42858,-3.23531 -31.42858,-6.78571 0,-3.55041 14.07105,-6.07144 31.42858,-6.07144 17.35752,0 21.42857,8.9496 21.42857,12.50001 z"
         style="fill:#502d16" />
      <path
         sodipodi:nodetypes="cssc"
         inkscape:connector-curvature="0"
         id="path3035"
         d="m 324.48285,224.83473 c -5.84439,4.33685 -13.15218,5.53942 -21.48925,4.99569 -8.33706,-0.54372 -16.33203,-0.12784 -14.77336,-3.03612 0.81154,-1.51423 9.52385,-11.40473 23.67695,-6.4776"
         style="fill:#502d16" />
      <path
         sodipodi:nodetypes="sssss"
         inkscape:connector-curvature="0"
         id="path3049"
         d="m 390.81581,378.13593 c -0.02,9.86221 -18.95321,24.28571 -43.21428,24.28571 -24.26108,0 -48.69414,-15.29401 -44.64286,-24.28571 4.28571,-9.51204 18.13225,-5.49549 43.21428,-5 24.06688,0.47544 44.66812,-7.44155 44.64286,5 z"
         style="fill:#800000" />
      <path
         sodipodi:nodetypes="sssss"
         inkscape:connector-curvature="0"
         id="path3052"
         d="m 383.85797,373.0346 c 0,3.06841 -17.45742,12.12183 -37.12311,12.12183 -19.66569,0 -36.61802,-7.03312 -36.61802,-10.10153 0,-3.0684 16.95233,-1.01015 36.61802,-1.01015 19.66569,0 37.12311,-4.07855 37.12311,-1.01015 z"
         style="fill:#e6e6e6" />
      <path
         sodipodi:nodetypes="sssss"
         inkscape:connector-curvature="0"
         id="path3057"
         d="m 302.77857,207.12291 c -31.53029,-1.02416 -48.2529,65.02616 -49.83695,71.76648 -2.84563,12.10856 -14.27861,-24.58517 -9.26947,-50.54775 5.00914,-25.96259 17.28064,-45.42526 27.40918,-43.4711 10.12853,1.95417 53.69118,22.96677 31.69724,22.25237 z"
         style="fill:#502d16" />
      <path
         sodipodi:nodetypes="sssss"
         inkscape:connector-curvature="0"
         id="path3081"
         d="m 508.83511,261.31424 c -19.27355,57.90512 -51.65964,112.03146 -39.51973,63.67529 9.60234,-38.24839 -39.55267,-28.50839 -39.51973,-63.67529 0.0329,-35.16554 -62.27873,-28.86004 12.70277,-60.94635 19.0666,-8.15904 77.71261,26.76875 66.33669,60.94635 z"
         style="fill:#502d16" />
      <path
         sodipodi:nodetypes="ccccc"
         inkscape:connector-curvature="0"
         id="rect3096"
         d="m 251.52798,209.89496 c 76.10041,8.34185 162.19548,-3.03872 230.31479,1.01016 6.98551,3.78945 11.84845,9.70147 16.16244,16.16244 -82.87422,16.79719 -169.02204,10.1929 -254.55845,3.03045 z"
         style="fill:#000000;fill-opacity:0.26570052" />
      <path
         sodipodi:nodetypes="sssss"
         inkscape:connector-curvature="0"
         id="path3059"
         d="m 568.91807,176.98221 c 0,15.77957 -89.54305,43.72372 -200,43.72372 -110.45695,0 -195.95939,-30.97461 -195.95939,-46.75418 0,-36.51909 87.52275,3.75346 197.9797,3.75346 110.45695,0 197.97969,-16.50256 197.97969,-0.723 z"
         style="fill:#a05a2c" />
      <path
         sodipodi:nodetypes="ssssss"
         inkscape:connector-curvature="0"
         id="path3069"
         d="m 478.15301,114.50143 c 10.60925,144.4214 -37.33035,91.19024 -90.66353,94.77593 -59.29483,3.98651 -144.54609,17.43051 -104.80566,-102.85715 17.44154,-52.792658 -10.96379,-80.063245 78.54169,-83.664241 7.32141,-0.294555 38.97853,28.976172 61.39152,10.758462 24.52679,-19.935842 52.11827,34.46253 55.53598,80.986999 z"
         style="fill:#a05a2c" />
      <path
         sodipodi:nodetypes="ccccc"
         inkscape:connector-curvature="0"
         id="rect3076"
         d="m 273.75133,137.16398 c 69.36381,4.63442 136.70732,5.2982 206.07113,0.50508 6.1182,22.66511 2.30542,26.78668 1.01015,35.86042 -69.36381,6.84732 -139.73777,2.07491 -209.10158,-4.54569 -0.47569,-10.31932 -2.56086,-20.23627 2.0203,-31.81981 z"
         style="fill:#502d16" />
      <path
         sodipodi:nodetypes="sssss"
         inkscape:connector-curvature="0"
         id="path3083"
         d="m 495.98489,279.09041 c 0.70267,18.11787 -14.91221,30.05416 -32.82995,32.82996 -18.48954,2.86439 -42.28408,0.7277 -32.82996,-32.82996 1.77726,-6.30843 18.72892,7.67976 32.82996,-32.82995 6.10819,-17.54772 31.95758,10.33662 32.82995,32.82995 z"
         style="fill:#e9c6af" />
      <path
         d="m 438.40621,335.15387 c 0,9.48416 -8.36683,17.17259 -18.68783,17.17259 -10.321,0 -18.68782,-7.68843 -18.68782,-17.17259 0,-9.48416 8.36682,-17.17259 18.68782,-17.17259 10.321,0 18.68783,7.68843 18.68783,17.17259 z"
         sodipodi:ry="17.172594"
         sodipodi:rx="18.687822"
         sodipodi:cy="335.15387"
         sodipodi:cx="419.71838"
         id="path3094"
         style="fill:#deaa87"
         sodipodi:type="arc" />
    </g>
    <path
       style="fill:#552200;fill-opacity:1;stroke:none"
       d="m 345.86874,600.09505 c -35.90128,0 -65.85477,-11.99352 -86.02541,-0.43588 -4.45084,45.82107 68.08084,70.55819 111.64909,67.21086 50.74746,-3.8989 64.93548,-16.74503 67.53883,-65.22652 -19.88933,-12.6722 -55.26125,-1.54846 -93.16251,-1.54846 z"
       id="path3889"
       inkscape:connector-curvature="0"
       sodipodi:nodetypes="scscs" />
    <path
       style="fill:#a05a2c;fill-opacity:1"
       d="m 259.70464,571.18292 c 59.89484,0.2351 120.26503,1.34429 180.15987,5.55583 0.66506,13.06516 1.09148,18.27317 0.47535,31.31474 -58.78567,-8.10526 -117.57135,-1.86635 -176.35702,3.03046 -8.19975,-15.65737 -7.27269,-24.24366 -4.2782,-39.90103 z"
       id="rect3921"
       inkscape:connector-curvature="0"
       sodipodi:nodetypes="ccccc" />
    <path
       style="fill:#ffffff;stroke:none"
       d="m 315.89055,473.59574 c 23.65818,12.56147 45.64007,10.94284 67.30608,6.65205 l -42.76288,64.86828 z"
       id="path3943"
       inkscape:connector-curvature="0"
       sodipodi:nodetypes="cccc" />
    <path
       sodipodi:type="arc"
       style="fill:#ffcc00;fill-opacity:1;stroke:none"
       id="path3946"
       sodipodi:cx="341.43155"
       sodipodi:cy="584.66156"
       sodipodi:rx="16.162441"
       sodipodi:ry="17.172594"
       d="m 357.59399,584.66156 a 16.162441,17.172594 0 1 1 -32.32488,0 16.162441,17.172594 0 1 1 32.32488,0 z"
       transform="translate(-16.306019,0)" />
    <g
       id="g4025"
       transform="translate(-112.85715,7.1428574)">
      <path
         sodipodi:nodetypes="sssss"
         inkscape:connector-curvature="0"
         id="path3952"
         d="m 549.52297,648.30115 c -1.97634,19.57366 -12.29628,29.35926 -26.26397,28.28427 -14.46241,-1.11306 -14.14213,-8.62269 -14.14213,-24.24366 0,-15.62097 -0.36305,-32.32488 14.14213,-32.32488 14.50519,0 27.83323,12.74232 26.26397,28.28427 z"
         style="fill:#e9c6af;fill-opacity:1;stroke:none" />
      <path
         sodipodi:nodetypes="sssss"
         inkscape:connector-curvature="0"
         id="path3948"
         d="m 557.6042,540.21484 c -0.55148,47.4176 -10.85426,85.86297 -24.24367,85.86297 -13.3894,0 -30.9857,-19.72885 -19.1929,-65.65992 12.98493,-50.57423 -44.056,-123.76213 1.01015,-112.12692 31.49183,8.13057 42.99107,43.37376 42.42642,91.92387 z"
         style="fill:#ececec;fill-opacity:1;stroke:none" />
      <path
         sodipodi:nodetypes="ccccc"
         inkscape:connector-curvature="0"
         id="rect3950"
         d="m 508.47779,608.82325 c 16.41907,-10.53877 26.71454,-2.54696 39.08653,-0.83886 7.49292,8.2502 5.76534,14.95029 0,20.97155 -14.13158,6.95973 -26.30787,4.05798 -38.2549,0 -3.56518,-5.88175 -6.0191,-12.04374 -0.83163,-20.13269 z"
         style="fill:#cccccc;fill-opacity:1;stroke:none" />
    </g>
    <path
       style="fill:#e9c6af;fill-opacity:1;stroke:none"
       d="m 382.85715,466.32324 c 2.7452,21.02722 -1.93331,13.66761 -25.00001,14.61037 -33.24276,1.35866 -47.59179,-4.63577 -39.28571,-14.61037 13.83259,-16.61126 23.13644,-20.06586 39.28571,-14.61038 19.9366,6.73491 23.95206,6.58352 25.00001,14.61038 z"
       id="path4104"
       inkscape:connector-curvature="0"
       sodipodi:nodetypes="sssss" />
  </g>
</svg>
